<svg id="enBeh7fNA9o1" xmlns="http://www.w3.org/2000/svg" xmlns:xlink="http://www.w3.org/1999/xlink" viewBox="0 0 611.999 611.999" shape-rendering="geometricPrecision" text-rendering="geometricPrecision"><defs><filter id="enBeh7fNA9o2-filter" x="-150%" width="400%" y="-150%" height="400%"><feComponentTransfer id="enBeh7fNA9o2-filter-contrast-0" result="result"><feFuncR id="enBeh7fNA9o2-filter-contrast-0-R" type="linear" slope="0" intercept="0.5"/><feFuncG id="enBeh7fNA9o2-filter-contrast-0-G" type="linear" slope="0" intercept="0.5"/><feFuncB id="enBeh7fNA9o2-filter-contrast-0-B" type="linear" slope="0" intercept="0.5"/></feComponentTransfer></filter></defs><g filter="url(#enBeh7fNA9o2-filter)"><g><g><path d="M570.107,500.254c-65.037-29.371-67.511-155.441-67.559-158.622v-84.578c0-81.402-49.742-151.399-120.427-181.203C381.969,34,347.883,0,306.001,0c-41.883,0-75.968,34.002-76.121,75.849-70.682,29.804-120.425,99.801-120.425,181.203v84.578c-.046,3.181-2.522,129.251-67.561,158.622-7.409,3.347-11.481,11.412-9.768,19.36c1.711,7.949,8.74,13.626,16.871,13.626h164.88c3.38,18.594,12.172,35.892,25.619,49.903c17.86,18.608,41.479,28.856,66.502,28.856c25.025,0,48.644-10.248,66.502-28.856c13.449-14.012,22.241-31.311,25.619-49.903h164.88c8.131,0,15.159-5.676,16.872-13.626c1.715-7.948-2.355-16.012-9.764-19.358Zm-85.673-60.395c6.837,20.728,16.518,41.544,30.246,58.866h-417.36c13.726-17.32,23.407-38.135,30.244-58.866h356.87ZM306.001,34.515c18.945,0,34.963,12.73,39.975,30.082-12.912-2.678-26.282-4.09-39.975-4.09s-27.063,1.411-39.975,4.09c5.013-17.351,21.031-30.082,39.975-30.082ZM143.97,341.736v-84.685c0-89.343,72.686-162.029,162.031-162.029s162.031,72.686,162.031,162.029v84.826c.023,2.596.427,29.879,7.303,63.465h-338.672c6.88-33.618,7.286-60.949,7.307-63.606ZM306.001,577.485c-26.341,0-49.33-18.992-56.709-44.246h113.416c-7.379,25.254-30.364,44.246-56.707,44.246Z"/><path d="M306.001,119.235c-74.25,0-134.657,60.405-134.657,134.654c0,9.531,7.727,17.258,17.258,17.258s17.258-7.727,17.258-17.258c0-55.217,44.923-100.139,100.142-100.139c9.531,0,17.258-7.727,17.258-17.258-.001-9.532-7.728-17.257-17.259-17.257Z"/></g></g></g></svg>
