
<svg version="1.1" id="Layer_1" xmlns="http://www.w3.org/2000/svg" xmlns:xlink="http://www.w3.org/1999/xlink" x="0px" y="0px"
	 viewBox="0 0 372.6 370.1" style="enable-background:new 0 0 372.6 370.1;" xml:space="preserve">
<g id="XMLID_1_">
	<g id="XMLID_25_">
		<path id="XMLID_39_" fill="#FFFFFF" d="M247.1,366.7c-40,0-80,0-120,0c-1-0.2-2.1-0.5-3.1-0.5c-14.3-0.4-28.6-1-42.6-4.6
			c-31-7.9-53.5-26-66.1-55.6c-7.3-17-9.2-35-9.6-53.2c-0.1-2.7-0.5-5.5-0.7-8.2c0-40,0-80,0-120c0.2-1,0.5-2.1,0.5-3.1
			c0.4-14.3,1-28.6,4.6-42.6c7.9-31,26-53.5,55.6-66.1c17-7.3,35-9.2,53.2-9.6c2.7-0.1,5.4-0.5,8.2-0.7c40,0,80,0,120,0
			c1,0.2,2.1,0.5,3.1,0.5c14.3,0.4,28.6,1,42.6,4.6c31,7.9,53.5,26,66.1,55.6c7.3,17,9.2,35,9.6,53.2c0.1,2.7,0.5,5.5,0.7,8.2
			c0,40,0,80,0,120c-0.2,1-0.5,2.1-0.5,3.1c-0.4,14.3-1,28.6-4.6,42.6c-7.9,31-26,53.5-55.6,66.1c-17,7.3-35,9.2-53.2,9.6
			C252.5,366,249.8,366.4,247.1,366.7z M186.9,333.2c0,0.1,0,0.2,0,0.3c15.3,0,30.6,0.4,45.9-0.1c15.5-0.5,31.1-0.7,46.4-3.1
			c27.4-4.2,45.4-20.1,52.5-47.4c3.9-14.8,4-30,4.2-45.1c0.4-32.9,0.5-65.7,0-98.6c-0.2-15.6-0.7-31.4-3-46.7
			c-4.2-27.4-20.1-45.4-47.4-52.5c-14.8-3.9-30-4-45.1-4.2c-32.9-0.4-65.7-0.5-98.6,0c-15.6,0.2-31.4,0.7-46.7,3
			c-27.4,4.2-45.4,20.1-52.5,47.4c-3.9,14.8-4,30-4.2,45.1c-0.4,32.9-0.5,65.7,0,98.6c0.2,15.6,0.7,31.4,3,46.7
			c4.2,27.4,20.1,45.3,47.4,52.6c12.9,3.4,26.2,3.7,39.4,4C147.7,333.5,167.3,333.2,186.9,333.2z"/>
		<path id="XMLID_28_" fill="#FFFFFF" d="M187,278.3c-51.5,0-93.7-42.2-93.7-93.7c0-51.7,42.2-93.8,94-93.8c51.5,0.1,93.5,42.3,93.5,93.9
			C280.8,236.2,238.6,278.3,187,278.3z M186.9,245.1c33.4,0,60.7-27,60.7-60c0-33.7-26.9-61-60.1-61c-33.6,0-60.9,26.9-60.9,60.2
			C126.6,217.8,153.6,245.1,186.9,245.1z"/>
		<path id="XMLID_27_" fill="#FFFFFF" d="M284.3,109.4c-12.2,0-22-9.7-22-21.9c0-12.2,9.8-22,21.9-22c12.2,0,22,9.7,22,21.9
			C306.3,99.6,296.5,109.4,284.3,109.4z"/>
		
	</g>
</g>
</svg>